<svg width="69" height="64" viewBox="0 0 69 64" fill="none" xmlns="http://www.w3.org/2000/svg">
<path d="M34.375 0C53.3594 0 68.75 15.3906 68.75 34.375C68.75 49.6375 58.7984 62.5703 45.0328 67.0563C45.0359 67.0438 45.0422 67.0234 45.0422 67.0234C45.0422 67.0234 42.7219 65.9359 42.7719 63.9953C42.8266 61.8594 42.7719 56.8766 42.7719 55.0469C42.7719 51.9062 40.7844 49.6813 40.7844 49.6813C40.7844 49.6813 56.3734 49.8563 56.3734 33.2234C56.3734 26.8063 53.0187 23.4656 53.0187 23.4656C53.0187 23.4656 54.7812 16.6141 52.4094 13.7078C49.7516 13.4203 44.9891 16.2484 42.9563 17.5703C42.9563 17.5703 39.7344 16.2484 34.375 16.2484C29.0156 16.2484 25.7937 17.5703 25.7937 17.5703C23.7609 16.2484 19 13.4203 16.3406 13.7078C13.9688 16.6141 15.7313 23.4656 15.7313 23.4656C15.7313 23.4656 12.3766 26.8047 12.3766 33.2234C12.3766 49.8563 27.9656 49.6813 27.9656 49.6813C27.9656 49.6813 26.3953 51.4563 26.0516 54.0656C24.9641 54.4344 23.3625 54.8906 22.0688 54.8906C18.6859 54.8906 16.1125 51.6016 15.1688 50.0812C14.2391 48.5812 12.3328 47.3219 10.5547 47.3219C9.38437 47.3219 8.8125 47.9078 8.8125 48.5766C8.8125 49.2453 10.4531 49.7125 11.5359 50.9531C13.8187 53.5688 13.7781 59.45 21.9125 59.45C22.7953 59.45 24.5984 59.2328 25.9562 59.05C25.9484 60.9016 25.9453 62.8562 25.975 63.9984C26.0234 65.9391 23.7047 67.0266 23.7047 67.0266C23.7047 67.0266 23.7109 67.0453 23.7141 67.0594C9.95156 62.5703 0 49.6375 0 34.375C0 15.3906 15.3906 0 34.375 0Z" fill="white"/>
</svg>
